<svg xmlns="http://www.w3.org/2000/svg" xmlns:xlink="http://www.w3.org/1999/xlink" zoomAndPan="magnify" viewBox="156 179 366 285" preserveAspectRatio="xMidYMid meet" version="1.0"><defs><g/><clipPath id="3dbc3d4682"><path d="M 0.71875 188 L 285.601562 188 L 285.601562 216 L 0.71875 216 Z M 0.71875 188 " clip-rule="nonzero"/></clipPath><clipPath id="778e5643a4"><rect x="0" width="286" y="0" height="28"/></clipPath><clipPath id="ee75e4068d"><path d="M 75 0.28125 L 143 0.28125 L 143 115 L 75 115 Z M 75 0.28125 " clip-rule="nonzero"/></clipPath><clipPath id="1678024c63"><rect x="0" width="68" y="0" height="115"/></clipPath><clipPath id="11cc2911da"><rect x="0" width="81" y="0" height="142"/></clipPath><clipPath id="51f95ea8b6"><path d="M 0.160156 0.558594 L 46.480469 0.558594 L 46.480469 62.480469 L 0.160156 62.480469 Z M 0.160156 0.558594 " clip-rule="nonzero"/></clipPath><clipPath id="6d7a374ed1"><path d="M 32.242188 0.675781 L 46.433594 9.242188 L 14.363281 62.382812 L 0.171875 53.816406 Z M 32.242188 0.675781 " clip-rule="nonzero"/></clipPath><clipPath id="5929062c77"><rect x="0" width="47" y="0" height="63"/></clipPath><clipPath id="9f2132226c"><path d="M 111 68 L 143 68 L 143 100 L 111 100 Z M 111 68 " clip-rule="nonzero"/></clipPath><clipPath id="868afd5484"><path d="M 123.546875 68.136719 L 142.882812 79.808594 L 130.992188 99.511719 L 111.65625 87.839844 Z M 123.546875 68.136719 " clip-rule="nonzero"/></clipPath><clipPath id="1130a9ae10"><path d="M 0.601562 0 L 32 0 L 32 31.640625 L 0.601562 31.640625 Z M 0.601562 0 " clip-rule="nonzero"/></clipPath><clipPath id="58366a7d04"><path d="M 12.546875 0.136719 L 31.882812 11.808594 L 19.992188 31.511719 L 0.65625 19.839844 Z M 12.546875 0.136719 " clip-rule="nonzero"/></clipPath><clipPath id="e85fa37a96"><rect x="0" width="32" y="0" height="32"/></clipPath><clipPath id="5c90f89828"><path d="M 24 229 L 267 229 L 267 245.320312 L 24 245.320312 Z M 24 229 " clip-rule="nonzero"/></clipPath><clipPath id="f824c5c3fb"><path d="M 180 0.480469 L 186 0.480469 L 186 12 L 180 12 Z M 180 0.480469 " clip-rule="nonzero"/></clipPath><clipPath id="afb571fe61"><rect x="0" width="243" y="0" height="17"/></clipPath><clipPath id="c4746059f3"><rect x="0" width="286" y="0" height="246"/></clipPath></defs><g transform="matrix(1, 0, 0, 1, 156, 179)"><g clip-path="url(#c4746059f3)"><g clip-path="url(#3dbc3d4682)"><g transform="matrix(1, 0, 0, 1, 0, 188)"><g clip-path="url(#778e5643a4)"><g fill="#ffffff" fill-opacity="1"><g transform="translate(1.401765, 21.010098)"><g><path d="M 7.875 0.1875 C 6.738281 0.1875 5.742188 0.015625 4.890625 -0.328125 C 4.046875 -0.671875 3.34375 -1.160156 2.78125 -1.796875 C 2.226562 -2.429688 1.8125 -3.191406 1.53125 -4.078125 C 1.257812 -4.960938 1.125 -5.945312 1.125 -7.03125 C 1.125 -8.09375 1.269531 -9.0625 1.5625 -9.9375 C 1.851562 -10.820312 2.285156 -11.582031 2.859375 -12.21875 C 3.441406 -12.851562 4.160156 -13.34375 5.015625 -13.6875 C 5.867188 -14.039062 6.863281 -14.21875 8 -14.21875 C 8.726562 -14.21875 9.363281 -14.160156 9.90625 -14.046875 C 10.445312 -13.941406 10.894531 -13.789062 11.25 -13.59375 C 11.613281 -13.394531 11.882812 -13.160156 12.0625 -12.890625 C 12.238281 -12.617188 12.328125 -12.328125 12.328125 -12.015625 C 12.328125 -11.804688 12.28125 -11.613281 12.1875 -11.4375 C 12.09375 -11.269531 11.960938 -11.128906 11.796875 -11.015625 C 11.640625 -10.898438 11.445312 -10.804688 11.21875 -10.734375 C 11 -10.671875 10.765625 -10.640625 10.515625 -10.640625 C 10.515625 -10.953125 10.46875 -11.253906 10.375 -11.546875 C 10.289062 -11.847656 10.144531 -12.117188 9.9375 -12.359375 C 9.726562 -12.597656 9.457031 -12.789062 9.125 -12.9375 C 8.789062 -13.09375 8.382812 -13.171875 7.90625 -13.171875 C 7.082031 -13.171875 6.375 -13.035156 5.78125 -12.765625 C 5.195312 -12.492188 4.71875 -12.097656 4.34375 -11.578125 C 3.976562 -11.054688 3.710938 -10.410156 3.546875 -9.640625 C 3.378906 -8.878906 3.296875 -8.007812 3.296875 -7.03125 C 3.296875 -6.050781 3.378906 -5.179688 3.546875 -4.421875 C 3.722656 -3.660156 4.003906 -3.019531 4.390625 -2.5 C 4.785156 -1.976562 5.289062 -1.582031 5.90625 -1.3125 C 6.53125 -1.050781 7.289062 -0.921875 8.1875 -0.921875 C 8.5625 -0.921875 8.925781 -0.9375 9.28125 -0.96875 C 9.644531 -1.007812 9.960938 -1.070312 10.234375 -1.15625 L 10.234375 -4.328125 C 10.234375 -4.609375 10.1875 -4.835938 10.09375 -5.015625 C 10.007812 -5.191406 9.894531 -5.328125 9.75 -5.421875 C 9.601562 -5.515625 9.429688 -5.578125 9.234375 -5.609375 C 9.046875 -5.640625 8.84375 -5.65625 8.625 -5.65625 L 8.546875 -5.65625 L 8.546875 -6.484375 L 13.640625 -6.484375 L 13.640625 -5.65625 L 13.5625 -5.65625 C 13.382812 -5.65625 13.210938 -5.640625 13.046875 -5.609375 C 12.878906 -5.578125 12.734375 -5.507812 12.609375 -5.40625 C 12.484375 -5.3125 12.382812 -5.171875 12.3125 -4.984375 C 12.25 -4.796875 12.21875 -4.546875 12.21875 -4.234375 L 12.21875 -0.703125 C 11.5625 -0.398438 10.882812 -0.175781 10.1875 -0.03125 C 9.488281 0.113281 8.71875 0.1875 7.875 0.1875 Z M 7.875 0.1875 "/></g></g></g><g fill="#ffffff" fill-opacity="1"><g transform="translate(23.279743, 21.010098)"><g><path d="M 10.890625 -2.390625 C 11.222656 -1.867188 11.546875 -1.476562 11.859375 -1.21875 C 12.171875 -0.957031 12.535156 -0.828125 12.953125 -0.828125 L 13 -0.828125 L 13 0 L 12.71875 0 C 12.113281 0 11.613281 -0.0195312 11.21875 -0.0625 C 10.820312 -0.113281 10.484375 -0.203125 10.203125 -0.328125 C 9.929688 -0.453125 9.695312 -0.628906 9.5 -0.859375 C 9.3125 -1.085938 9.101562 -1.390625 8.875 -1.765625 L 6.21875 -6.1875 L 4.59375 -6.1875 L 4.59375 -2.140625 C 4.59375 -1.847656 4.632812 -1.613281 4.71875 -1.4375 C 4.8125 -1.257812 4.929688 -1.125 5.078125 -1.03125 C 5.222656 -0.945312 5.390625 -0.890625 5.578125 -0.859375 C 5.773438 -0.835938 5.984375 -0.828125 6.203125 -0.828125 L 6.46875 -0.828125 L 6.46875 0 L 0.75 0 L 0.75 -0.828125 L 1 -0.828125 C 1.21875 -0.828125 1.421875 -0.835938 1.609375 -0.859375 C 1.804688 -0.890625 1.976562 -0.945312 2.125 -1.03125 C 2.269531 -1.125 2.382812 -1.257812 2.46875 -1.4375 C 2.5625 -1.613281 2.609375 -1.847656 2.609375 -2.140625 L 2.609375 -11.859375 C 2.609375 -12.148438 2.5625 -12.382812 2.46875 -12.5625 C 2.382812 -12.738281 2.269531 -12.875 2.125 -12.96875 C 1.976562 -13.0625 1.804688 -13.125 1.609375 -13.15625 C 1.421875 -13.1875 1.21875 -13.203125 1 -13.203125 L 0.75 -13.203125 L 0.75 -14.015625 L 6.03125 -14.015625 C 7.726562 -14.015625 8.992188 -13.695312 9.828125 -13.0625 C 10.660156 -12.4375 11.078125 -11.492188 11.078125 -10.234375 C 11.078125 -9.710938 10.988281 -9.253906 10.8125 -8.859375 C 10.644531 -8.460938 10.425781 -8.117188 10.15625 -7.828125 C 9.882812 -7.546875 9.570312 -7.304688 9.21875 -7.109375 C 8.875 -6.921875 8.53125 -6.769531 8.1875 -6.65625 Z M 4.59375 -7.109375 L 5.96875 -7.109375 C 6.550781 -7.109375 7.03125 -7.171875 7.40625 -7.296875 C 7.789062 -7.421875 8.097656 -7.609375 8.328125 -7.859375 C 8.554688 -8.117188 8.71875 -8.441406 8.8125 -8.828125 C 8.914062 -9.210938 8.96875 -9.660156 8.96875 -10.171875 C 8.96875 -10.703125 8.914062 -11.148438 8.8125 -11.515625 C 8.707031 -11.878906 8.53125 -12.175781 8.28125 -12.40625 C 8.039062 -12.644531 7.726562 -12.816406 7.34375 -12.921875 C 6.957031 -13.023438 6.484375 -13.078125 5.921875 -13.078125 L 4.59375 -13.078125 Z M 4.59375 -7.109375 "/></g></g></g><g fill="#ffffff" fill-opacity="1"><g transform="translate(44.016566, 21.010098)"><g><path d="M 3.96875 -4.6875 L 3.21875 -2.625 C 3.164062 -2.46875 3.125 -2.316406 3.09375 -2.171875 C 3.0625 -2.023438 3.046875 -1.894531 3.046875 -1.78125 C 3.046875 -1.445312 3.148438 -1.203125 3.359375 -1.046875 C 3.578125 -0.898438 3.90625 -0.828125 4.34375 -0.828125 L 4.796875 -0.828125 L 4.796875 0 L 0 0 L 0 -0.828125 L 0.375 -0.828125 C 0.5625 -0.828125 0.722656 -0.847656 0.859375 -0.890625 C 0.992188 -0.929688 1.113281 -1.007812 1.21875 -1.125 C 1.332031 -1.238281 1.4375 -1.394531 1.53125 -1.59375 C 1.632812 -1.789062 1.75 -2.046875 1.875 -2.359375 L 6.21875 -14.015625 L 7.765625 -14.015625 L 12.203125 -1.875 C 12.273438 -1.664062 12.347656 -1.492188 12.421875 -1.359375 C 12.503906 -1.222656 12.597656 -1.113281 12.703125 -1.03125 C 12.816406 -0.957031 12.941406 -0.90625 13.078125 -0.875 C 13.222656 -0.84375 13.394531 -0.828125 13.59375 -0.828125 L 13.84375 -0.828125 L 13.84375 0 L 8.453125 0 L 8.453125 -0.828125 L 8.90625 -0.828125 C 9.6875 -0.828125 10.078125 -1.140625 10.078125 -1.765625 C 10.078125 -1.867188 10.0625 -1.976562 10.03125 -2.09375 C 10.007812 -2.207031 9.972656 -2.34375 9.921875 -2.5 L 9.125 -4.6875 Z M 7.5625 -9.109375 C 7.351562 -9.691406 7.160156 -10.238281 6.984375 -10.75 C 6.816406 -11.257812 6.679688 -11.75 6.578125 -12.21875 C 6.535156 -11.976562 6.484375 -11.75 6.421875 -11.53125 C 6.359375 -11.3125 6.289062 -11.085938 6.21875 -10.859375 C 6.15625 -10.628906 6.078125 -10.382812 5.984375 -10.125 C 5.890625 -9.875 5.785156 -9.597656 5.671875 -9.296875 L 4.34375 -5.671875 L 8.78125 -5.671875 Z M 7.5625 -9.109375 "/></g></g></g><g fill="#ffffff" fill-opacity="1"><g transform="translate(65.721932, 21.010098)"><g><path d="M 7.421875 -14.21875 C 8.097656 -14.21875 8.679688 -14.160156 9.171875 -14.046875 C 9.671875 -13.941406 10.082031 -13.789062 10.40625 -13.59375 C 10.738281 -13.394531 10.984375 -13.160156 11.140625 -12.890625 C 11.304688 -12.617188 11.390625 -12.328125 11.390625 -12.015625 C 11.390625 -11.804688 11.347656 -11.613281 11.265625 -11.4375 C 11.179688 -11.269531 11.0625 -11.128906 10.90625 -11.015625 C 10.75 -10.898438 10.566406 -10.804688 10.359375 -10.734375 C 10.148438 -10.671875 9.925781 -10.640625 9.6875 -10.640625 C 9.6875 -10.953125 9.644531 -11.253906 9.5625 -11.546875 C 9.488281 -11.847656 9.359375 -12.117188 9.171875 -12.359375 C 8.992188 -12.597656 8.757812 -12.789062 8.46875 -12.9375 C 8.175781 -13.09375 7.816406 -13.171875 7.390625 -13.171875 C 6.640625 -13.171875 6.003906 -13.035156 5.484375 -12.765625 C 4.972656 -12.492188 4.550781 -12.097656 4.21875 -11.578125 C 3.894531 -11.054688 3.660156 -10.410156 3.515625 -9.640625 C 3.367188 -8.878906 3.296875 -8.007812 3.296875 -7.03125 C 3.296875 -6.15625 3.375 -5.351562 3.53125 -4.625 C 3.6875 -3.894531 3.925781 -3.269531 4.25 -2.75 C 4.582031 -2.226562 5.003906 -1.820312 5.515625 -1.53125 C 6.035156 -1.25 6.660156 -1.109375 7.390625 -1.109375 C 7.867188 -1.109375 8.289062 -1.148438 8.65625 -1.234375 C 9.019531 -1.328125 9.34375 -1.453125 9.625 -1.609375 C 9.90625 -1.765625 10.148438 -1.941406 10.359375 -2.140625 C 10.578125 -2.347656 10.769531 -2.554688 10.9375 -2.765625 C 11.050781 -2.703125 11.140625 -2.609375 11.203125 -2.484375 C 11.273438 -2.359375 11.3125 -2.195312 11.3125 -2 C 11.3125 -1.75 11.226562 -1.492188 11.0625 -1.234375 C 10.894531 -0.984375 10.632812 -0.75 10.28125 -0.53125 C 9.9375 -0.320312 9.5 -0.148438 8.96875 -0.015625 C 8.445312 0.117188 7.820312 0.1875 7.09375 0.1875 C 6.113281 0.1875 5.25 0.015625 4.5 -0.328125 C 3.757812 -0.671875 3.140625 -1.160156 2.640625 -1.796875 C 2.140625 -2.429688 1.757812 -3.191406 1.5 -4.078125 C 1.25 -4.960938 1.125 -5.945312 1.125 -7.03125 C 1.125 -8.09375 1.253906 -9.0625 1.515625 -9.9375 C 1.785156 -10.820312 2.1875 -11.582031 2.71875 -12.21875 C 3.25 -12.851562 3.90625 -13.34375 4.6875 -13.6875 C 5.476562 -14.039062 6.390625 -14.21875 7.421875 -14.21875 Z M 7.421875 -14.21875 "/></g></g></g><g fill="#ffffff" fill-opacity="1"><g transform="translate(85.634055, 21.010098)"><g><path d="M 0.75 0 L 0.75 -0.828125 L 1 -0.828125 C 1.21875 -0.828125 1.425781 -0.84375 1.625 -0.875 C 1.820312 -0.90625 1.992188 -0.96875 2.140625 -1.0625 C 2.285156 -1.164062 2.398438 -1.3125 2.484375 -1.5 C 2.566406 -1.6875 2.609375 -1.929688 2.609375 -2.234375 L 2.609375 -11.78125 C 2.609375 -12.09375 2.566406 -12.335938 2.484375 -12.515625 C 2.398438 -12.703125 2.285156 -12.84375 2.140625 -12.9375 C 1.992188 -13.039062 1.820312 -13.109375 1.625 -13.140625 C 1.425781 -13.179688 1.21875 -13.203125 1 -13.203125 L 0.75 -13.203125 L 0.75 -14.015625 L 6.46875 -14.015625 L 6.46875 -13.203125 L 6.203125 -13.203125 C 5.984375 -13.203125 5.773438 -13.179688 5.578125 -13.140625 C 5.378906 -13.109375 5.207031 -13.039062 5.0625 -12.9375 C 4.925781 -12.84375 4.8125 -12.703125 4.71875 -12.515625 C 4.632812 -12.335938 4.59375 -12.09375 4.59375 -11.78125 L 4.59375 -2.234375 C 4.59375 -1.929688 4.632812 -1.6875 4.71875 -1.5 C 4.8125 -1.3125 4.925781 -1.164062 5.0625 -1.0625 C 5.207031 -0.96875 5.378906 -0.90625 5.578125 -0.875 C 5.773438 -0.84375 5.984375 -0.828125 6.203125 -0.828125 L 6.46875 -0.828125 L 6.46875 0 Z M 0.75 0 "/></g></g></g><g fill="#ffffff" fill-opacity="1"><g transform="translate(100.703463, 21.010098)"><g><path d="M 4.59375 -0.984375 L 8.375 -0.984375 C 8.695312 -0.984375 8.96875 -1.023438 9.1875 -1.109375 C 9.40625 -1.191406 9.585938 -1.304688 9.734375 -1.453125 C 9.878906 -1.597656 9.992188 -1.769531 10.078125 -1.96875 C 10.160156 -2.164062 10.21875 -2.375 10.25 -2.59375 L 10.390625 -3.4375 L 11.40625 -3.4375 L 11.28125 0 L 0.75 0 L 0.75 -0.828125 L 1 -0.828125 C 1.21875 -0.828125 1.421875 -0.835938 1.609375 -0.859375 C 1.804688 -0.890625 1.976562 -0.945312 2.125 -1.03125 C 2.269531 -1.125 2.382812 -1.257812 2.46875 -1.4375 C 2.5625 -1.613281 2.609375 -1.847656 2.609375 -2.140625 L 2.609375 -11.78125 C 2.609375 -12.09375 2.566406 -12.335938 2.484375 -12.515625 C 2.398438 -12.703125 2.285156 -12.84375 2.140625 -12.9375 C 1.992188 -13.039062 1.820312 -13.109375 1.625 -13.140625 C 1.425781 -13.179688 1.21875 -13.203125 1 -13.203125 L 0.75 -13.203125 L 0.75 -14.015625 L 10.640625 -14.015625 L 10.734375 -10.59375 L 9.71875 -10.59375 L 9.625 -11.4375 C 9.601562 -11.644531 9.554688 -11.847656 9.484375 -12.046875 C 9.410156 -12.242188 9.300781 -12.414062 9.15625 -12.5625 C 9.019531 -12.707031 8.847656 -12.820312 8.640625 -12.90625 C 8.429688 -13 8.179688 -13.046875 7.890625 -13.046875 L 4.59375 -13.046875 L 4.59375 -7.8125 L 9.328125 -7.8125 L 9.328125 -6.859375 L 4.59375 -6.859375 Z M 4.59375 -0.984375 "/></g></g></g><g fill="#ffffff" fill-opacity="1"><g transform="translate(120.797787, 21.010098)"><g><path d="M 0.75 0 L 0.75 -0.828125 L 1 -0.828125 C 1.21875 -0.828125 1.425781 -0.84375 1.625 -0.875 C 1.820312 -0.90625 1.992188 -0.96875 2.140625 -1.0625 C 2.285156 -1.164062 2.398438 -1.3125 2.484375 -1.5 C 2.566406 -1.6875 2.609375 -1.929688 2.609375 -2.234375 L 2.609375 -11.78125 C 2.609375 -12.09375 2.566406 -12.335938 2.484375 -12.515625 C 2.398438 -12.703125 2.285156 -12.84375 2.140625 -12.9375 C 1.992188 -13.039062 1.820312 -13.109375 1.625 -13.140625 C 1.425781 -13.179688 1.21875 -13.203125 1 -13.203125 L 0.75 -13.203125 L 0.75 -14.015625 L 6.46875 -14.015625 L 6.46875 -13.203125 L 6.203125 -13.203125 C 5.984375 -13.203125 5.773438 -13.1875 5.578125 -13.15625 C 5.390625 -13.125 5.222656 -13.0625 5.078125 -12.96875 C 4.929688 -12.875 4.8125 -12.738281 4.71875 -12.5625 C 4.632812 -12.382812 4.59375 -12.148438 4.59375 -11.859375 L 4.59375 -0.984375 L 8.46875 -0.984375 C 8.757812 -0.984375 9.007812 -1.035156 9.21875 -1.140625 C 9.425781 -1.242188 9.597656 -1.378906 9.734375 -1.546875 C 9.867188 -1.710938 9.972656 -1.898438 10.046875 -2.109375 C 10.117188 -2.328125 10.164062 -2.539062 10.1875 -2.75 L 10.390625 -4.21875 L 11.40625 -4.21875 L 11.28125 0 Z M 0.75 0 "/></g></g></g><g fill="#ffffff" fill-opacity="1"><g transform="translate(140.892112, 21.010098)"><g><path d="M 3.96875 -4.6875 L 3.21875 -2.625 C 3.164062 -2.46875 3.125 -2.316406 3.09375 -2.171875 C 3.0625 -2.023438 3.046875 -1.894531 3.046875 -1.78125 C 3.046875 -1.445312 3.148438 -1.203125 3.359375 -1.046875 C 3.578125 -0.898438 3.90625 -0.828125 4.34375 -0.828125 L 4.796875 -0.828125 L 4.796875 0 L 0 0 L 0 -0.828125 L 0.375 -0.828125 C 0.5625 -0.828125 0.722656 -0.847656 0.859375 -0.890625 C 0.992188 -0.929688 1.113281 -1.007812 1.21875 -1.125 C 1.332031 -1.238281 1.4375 -1.394531 1.53125 -1.59375 C 1.632812 -1.789062 1.75 -2.046875 1.875 -2.359375 L 6.21875 -14.015625 L 7.765625 -14.015625 L 12.203125 -1.875 C 12.273438 -1.664062 12.347656 -1.492188 12.421875 -1.359375 C 12.503906 -1.222656 12.597656 -1.113281 12.703125 -1.03125 C 12.816406 -0.957031 12.941406 -0.90625 13.078125 -0.875 C 13.222656 -0.84375 13.394531 -0.828125 13.59375 -0.828125 L 13.84375 -0.828125 L 13.84375 0 L 8.453125 0 L 8.453125 -0.828125 L 8.90625 -0.828125 C 9.6875 -0.828125 10.078125 -1.140625 10.078125 -1.765625 C 10.078125 -1.867188 10.0625 -1.976562 10.03125 -2.09375 C 10.007812 -2.207031 9.972656 -2.34375 9.921875 -2.5 L 9.125 -4.6875 Z M 7.5625 -9.109375 C 7.351562 -9.691406 7.160156 -10.238281 6.984375 -10.75 C 6.816406 -11.257812 6.679688 -11.75 6.578125 -12.21875 C 6.535156 -11.976562 6.484375 -11.75 6.421875 -11.53125 C 6.359375 -11.3125 6.289062 -11.085938 6.21875 -10.859375 C 6.15625 -10.628906 6.078125 -10.382812 5.984375 -10.125 C 5.890625 -9.875 5.785156 -9.597656 5.671875 -9.296875 L 4.34375 -5.671875 L 8.78125 -5.671875 Z M 7.5625 -9.109375 "/></g></g></g><g fill="#ffffff" fill-opacity="1"><g transform="translate(162.597478, 21.010098)"><g/></g></g><g fill="#ffffff" fill-opacity="1"><g transform="translate(175.557187, 21.010098)"><g><path d="M 10.890625 -2.390625 C 11.222656 -1.867188 11.546875 -1.476562 11.859375 -1.21875 C 12.171875 -0.957031 12.535156 -0.828125 12.953125 -0.828125 L 13 -0.828125 L 13 0 L 12.71875 0 C 12.113281 0 11.613281 -0.0195312 11.21875 -0.0625 C 10.820312 -0.113281 10.484375 -0.203125 10.203125 -0.328125 C 9.929688 -0.453125 9.695312 -0.628906 9.5 -0.859375 C 9.3125 -1.085938 9.101562 -1.390625 8.875 -1.765625 L 6.21875 -6.1875 L 4.59375 -6.1875 L 4.59375 -2.140625 C 4.59375 -1.847656 4.632812 -1.613281 4.71875 -1.4375 C 4.8125 -1.257812 4.929688 -1.125 5.078125 -1.03125 C 5.222656 -0.945312 5.390625 -0.890625 5.578125 -0.859375 C 5.773438 -0.835938 5.984375 -0.828125 6.203125 -0.828125 L 6.46875 -0.828125 L 6.46875 0 L 0.75 0 L 0.75 -0.828125 L 1 -0.828125 C 1.21875 -0.828125 1.421875 -0.835938 1.609375 -0.859375 C 1.804688 -0.890625 1.976562 -0.945312 2.125 -1.03125 C 2.269531 -1.125 2.382812 -1.257812 2.46875 -1.4375 C 2.5625 -1.613281 2.609375 -1.847656 2.609375 -2.140625 L 2.609375 -11.859375 C 2.609375 -12.148438 2.5625 -12.382812 2.46875 -12.5625 C 2.382812 -12.738281 2.269531 -12.875 2.125 -12.96875 C 1.976562 -13.0625 1.804688 -13.125 1.609375 -13.15625 C 1.421875 -13.1875 1.21875 -13.203125 1 -13.203125 L 0.75 -13.203125 L 0.75 -14.015625 L 6.03125 -14.015625 C 7.726562 -14.015625 8.992188 -13.695312 9.828125 -13.0625 C 10.660156 -12.4375 11.078125 -11.492188 11.078125 -10.234375 C 11.078125 -9.710938 10.988281 -9.253906 10.8125 -8.859375 C 10.644531 -8.460938 10.425781 -8.117188 10.15625 -7.828125 C 9.882812 -7.546875 9.570312 -7.304688 9.21875 -7.109375 C 8.875 -6.921875 8.53125 -6.769531 8.1875 -6.65625 Z M 4.59375 -7.109375 L 5.96875 -7.109375 C 6.550781 -7.109375 7.03125 -7.171875 7.40625 -7.296875 C 7.789062 -7.421875 8.097656 -7.609375 8.328125 -7.859375 C 8.554688 -8.117188 8.71875 -8.441406 8.8125 -8.828125 C 8.914062 -9.210938 8.96875 -9.660156 8.96875 -10.171875 C 8.96875 -10.703125 8.914062 -11.148438 8.8125 -11.515625 C 8.707031 -11.878906 8.53125 -12.175781 8.28125 -12.40625 C 8.039062 -12.644531 7.726562 -12.816406 7.34375 -12.921875 C 6.957031 -13.023438 6.484375 -13.078125 5.921875 -13.078125 L 4.59375 -13.078125 Z M 4.59375 -7.109375 "/></g></g></g><g fill="#ffffff" fill-opacity="1"><g transform="translate(196.294011, 21.010098)"><g><path d="M 3.96875 -4.6875 L 3.21875 -2.625 C 3.164062 -2.46875 3.125 -2.316406 3.09375 -2.171875 C 3.0625 -2.023438 3.046875 -1.894531 3.046875 -1.78125 C 3.046875 -1.445312 3.148438 -1.203125 3.359375 -1.046875 C 3.578125 -0.898438 3.90625 -0.828125 4.34375 -0.828125 L 4.796875 -0.828125 L 4.796875 0 L 0 0 L 0 -0.828125 L 0.375 -0.828125 C 0.5625 -0.828125 0.722656 -0.847656 0.859375 -0.890625 C 0.992188 -0.929688 1.113281 -1.007812 1.21875 -1.125 C 1.332031 -1.238281 1.4375 -1.394531 1.53125 -1.59375 C 1.632812 -1.789062 1.75 -2.046875 1.875 -2.359375 L 6.21875 -14.015625 L 7.765625 -14.015625 L 12.203125 -1.875 C 12.273438 -1.664062 12.347656 -1.492188 12.421875 -1.359375 C 12.503906 -1.222656 12.597656 -1.113281 12.703125 -1.03125 C 12.816406 -0.957031 12.941406 -0.90625 13.078125 -0.875 C 13.222656 -0.84375 13.394531 -0.828125 13.59375 -0.828125 L 13.84375 -0.828125 L 13.84375 0 L 8.453125 0 L 8.453125 -0.828125 L 8.90625 -0.828125 C 9.6875 -0.828125 10.078125 -1.140625 10.078125 -1.765625 C 10.078125 -1.867188 10.0625 -1.976562 10.03125 -2.09375 C 10.007812 -2.207031 9.972656 -2.34375 9.921875 -2.5 L 9.125 -4.6875 Z M 7.5625 -9.109375 C 7.351562 -9.691406 7.160156 -10.238281 6.984375 -10.75 C 6.816406 -11.257812 6.679688 -11.75 6.578125 -12.21875 C 6.535156 -11.976562 6.484375 -11.75 6.421875 -11.53125 C 6.359375 -11.3125 6.289062 -11.085938 6.21875 -10.859375 C 6.15625 -10.628906 6.078125 -10.382812 5.984375 -10.125 C 5.890625 -9.875 5.785156 -9.597656 5.671875 -9.296875 L 4.34375 -5.671875 L 8.78125 -5.671875 Z M 7.5625 -9.109375 "/></g></g></g><g fill="#ffffff" fill-opacity="1"><g transform="translate(217.999377, 21.010098)"><g><path d="M 12.453125 0 L 12.453125 -0.828125 L 12.515625 -0.828125 C 12.722656 -0.828125 12.910156 -0.835938 13.078125 -0.859375 C 13.253906 -0.890625 13.398438 -0.945312 13.515625 -1.03125 C 13.628906 -1.125 13.722656 -1.25 13.796875 -1.40625 C 13.867188 -1.570312 13.910156 -1.789062 13.921875 -2.0625 L 13.921875 -12.546875 L 9.421875 0 L 8.359375 0 L 3.8125 -12.515625 L 3.8125 -2.234375 C 3.8125 -1.929688 3.84375 -1.6875 3.90625 -1.5 C 3.96875 -1.3125 4.0625 -1.164062 4.1875 -1.0625 C 4.3125 -0.96875 4.460938 -0.90625 4.640625 -0.875 C 4.816406 -0.84375 5.015625 -0.828125 5.234375 -0.828125 L 5.28125 -0.828125 L 5.28125 0 L 0.75 0 L 0.75 -0.828125 L 1 -0.828125 C 1.21875 -0.828125 1.421875 -0.835938 1.609375 -0.859375 C 1.804688 -0.890625 1.976562 -0.945312 2.125 -1.03125 C 2.269531 -1.125 2.382812 -1.257812 2.46875 -1.4375 C 2.5625 -1.613281 2.609375 -1.847656 2.609375 -2.140625 L 2.609375 -11.859375 C 2.609375 -12.148438 2.5625 -12.382812 2.46875 -12.5625 C 2.382812 -12.738281 2.269531 -12.875 2.125 -12.96875 C 1.976562 -13.0625 1.804688 -13.125 1.609375 -13.15625 C 1.421875 -13.1875 1.21875 -13.203125 1 -13.203125 L 0.75 -13.203125 L 0.75 -14.015625 L 5.234375 -14.015625 L 9.296875 -2.796875 L 13.328125 -14.015625 L 17.671875 -14.015625 L 17.671875 -13.203125 L 17.421875 -13.203125 C 17.203125 -13.203125 16.992188 -13.179688 16.796875 -13.140625 C 16.597656 -13.109375 16.425781 -13.039062 16.28125 -12.9375 C 16.132812 -12.84375 16.019531 -12.703125 15.9375 -12.515625 C 15.851562 -12.335938 15.8125 -12.09375 15.8125 -11.78125 L 15.8125 -2.234375 C 15.8125 -1.929688 15.851562 -1.6875 15.9375 -1.5 C 16.019531 -1.3125 16.132812 -1.164062 16.28125 -1.0625 C 16.425781 -0.96875 16.597656 -0.90625 16.796875 -0.875 C 16.992188 -0.84375 17.203125 -0.828125 17.421875 -0.828125 L 17.671875 -0.828125 L 17.671875 0 Z M 12.453125 0 "/></g></g></g><g fill="#ffffff" fill-opacity="1"><g transform="translate(244.278953, 21.010098)"><g><path d="M 13.453125 -7.03125 C 13.453125 -5.945312 13.316406 -4.960938 13.046875 -4.078125 C 12.785156 -3.191406 12.390625 -2.429688 11.859375 -1.796875 C 11.335938 -1.160156 10.691406 -0.671875 9.921875 -0.328125 C 9.160156 0.015625 8.28125 0.1875 7.28125 0.1875 C 6.238281 0.1875 5.332031 0.015625 4.5625 -0.328125 C 3.789062 -0.671875 3.148438 -1.160156 2.640625 -1.796875 C 2.128906 -2.429688 1.742188 -3.191406 1.484375 -4.078125 C 1.234375 -4.972656 1.109375 -5.960938 1.109375 -7.046875 C 1.109375 -8.128906 1.234375 -9.113281 1.484375 -10 C 1.742188 -10.882812 2.128906 -11.640625 2.640625 -12.265625 C 3.148438 -12.898438 3.796875 -13.382812 4.578125 -13.71875 C 5.359375 -14.0625 6.269531 -14.234375 7.3125 -14.234375 C 8.300781 -14.234375 9.175781 -14.0625 9.9375 -13.71875 C 10.695312 -13.382812 11.335938 -12.898438 11.859375 -12.265625 C 12.390625 -11.640625 12.785156 -10.882812 13.046875 -10 C 13.316406 -9.113281 13.453125 -8.125 13.453125 -7.03125 Z M 3.28125 -7.03125 C 3.28125 -6.0625 3.351562 -5.191406 3.5 -4.421875 C 3.644531 -3.660156 3.875 -3.015625 4.1875 -2.484375 C 4.507812 -1.960938 4.921875 -1.5625 5.421875 -1.28125 C 5.929688 -1 6.550781 -0.859375 7.28125 -0.859375 C 8.007812 -0.859375 8.628906 -1 9.140625 -1.28125 C 9.648438 -1.5625 10.0625 -1.960938 10.375 -2.484375 C 10.695312 -3.015625 10.925781 -3.660156 11.0625 -4.421875 C 11.207031 -5.191406 11.28125 -6.0625 11.28125 -7.03125 C 11.28125 -8 11.207031 -8.863281 11.0625 -9.625 C 10.925781 -10.394531 10.695312 -11.039062 10.375 -11.5625 C 10.0625 -12.09375 9.65625 -12.492188 9.15625 -12.765625 C 8.65625 -13.035156 8.039062 -13.171875 7.3125 -13.171875 C 6.582031 -13.171875 5.960938 -13.035156 5.453125 -12.765625 C 4.941406 -12.492188 4.523438 -12.09375 4.203125 -11.5625 C 3.878906 -11.039062 3.644531 -10.394531 3.5 -9.625 C 3.351562 -8.863281 3.28125 -8 3.28125 -7.03125 Z M 3.28125 -7.03125 "/></g></g></g><g fill="#ffffff" fill-opacity="1"><g transform="translate(266.713111, 21.010098)"><g><path d="M 4.859375 0.1875 C 4.210938 0.1875 3.644531 0.117188 3.15625 -0.015625 C 2.664062 -0.148438 2.253906 -0.335938 1.921875 -0.578125 C 1.597656 -0.816406 1.351562 -1.101562 1.1875 -1.4375 C 1.019531 -1.78125 0.9375 -2.15625 0.9375 -2.5625 C 0.9375 -2.96875 1.054688 -3.289062 1.296875 -3.53125 C 1.546875 -3.769531 1.898438 -3.890625 2.359375 -3.890625 C 2.378906 -3.484375 2.441406 -3.085938 2.546875 -2.703125 C 2.648438 -2.328125 2.804688 -1.992188 3.015625 -1.703125 C 3.234375 -1.421875 3.503906 -1.191406 3.828125 -1.015625 C 4.148438 -0.847656 4.539062 -0.765625 5 -0.765625 C 5.882812 -0.765625 6.570312 -0.976562 7.0625 -1.40625 C 7.5625 -1.832031 7.8125 -2.441406 7.8125 -3.234375 C 7.8125 -3.597656 7.757812 -3.914062 7.65625 -4.1875 C 7.5625 -4.46875 7.394531 -4.722656 7.15625 -4.953125 C 6.914062 -5.179688 6.601562 -5.40625 6.21875 -5.625 C 5.832031 -5.84375 5.351562 -6.066406 4.78125 -6.296875 C 4.164062 -6.546875 3.628906 -6.8125 3.171875 -7.09375 C 2.722656 -7.382812 2.347656 -7.703125 2.046875 -8.046875 C 1.742188 -8.398438 1.519531 -8.789062 1.375 -9.21875 C 1.226562 -9.644531 1.15625 -10.128906 1.15625 -10.671875 C 1.15625 -11.234375 1.257812 -11.734375 1.46875 -12.171875 C 1.6875 -12.609375 1.988281 -12.976562 2.375 -13.28125 C 2.757812 -13.59375 3.210938 -13.828125 3.734375 -13.984375 C 4.265625 -14.140625 4.835938 -14.21875 5.453125 -14.21875 C 6.046875 -14.21875 6.566406 -14.15625 7.015625 -14.03125 C 7.472656 -13.914062 7.859375 -13.753906 8.171875 -13.546875 C 8.484375 -13.347656 8.71875 -13.113281 8.875 -12.84375 C 9.039062 -12.582031 9.125 -12.304688 9.125 -12.015625 C 9.125 -11.597656 8.984375 -11.28125 8.703125 -11.0625 C 8.429688 -10.84375 8.054688 -10.734375 7.578125 -10.734375 C 7.578125 -11.046875 7.539062 -11.347656 7.46875 -11.640625 C 7.394531 -11.941406 7.269531 -12.207031 7.09375 -12.4375 C 6.925781 -12.675781 6.703125 -12.867188 6.421875 -13.015625 C 6.140625 -13.160156 5.789062 -13.234375 5.375 -13.234375 C 5 -13.234375 4.660156 -13.179688 4.359375 -13.078125 C 4.066406 -12.972656 3.816406 -12.820312 3.609375 -12.625 C 3.410156 -12.425781 3.253906 -12.191406 3.140625 -11.921875 C 3.035156 -11.648438 2.984375 -11.34375 2.984375 -11 C 2.984375 -10.613281 3.035156 -10.269531 3.140625 -9.96875 C 3.242188 -9.664062 3.414062 -9.394531 3.65625 -9.15625 C 3.894531 -8.914062 4.207031 -8.6875 4.59375 -8.46875 C 4.976562 -8.257812 5.457031 -8.039062 6.03125 -7.8125 C 6.601562 -7.582031 7.113281 -7.332031 7.5625 -7.0625 C 8.019531 -6.800781 8.40625 -6.507812 8.71875 -6.1875 C 9.03125 -5.863281 9.269531 -5.5 9.4375 -5.09375 C 9.601562 -4.695312 9.6875 -4.25 9.6875 -3.75 C 9.6875 -3.125 9.570312 -2.566406 9.34375 -2.078125 C 9.113281 -1.597656 8.785156 -1.1875 8.359375 -0.84375 C 7.941406 -0.5 7.4375 -0.238281 6.84375 -0.0625 C 6.25 0.101562 5.585938 0.1875 4.859375 0.1875 Z M 4.859375 0.1875 "/></g></g></g></g></g></g><g clip-path="url(#ee75e4068d)"><g transform="matrix(1, 0, 0, 1, 75, -0.000000000000028422)"><g clip-path="url(#1678024c63)"><g fill="#ffffff" fill-opacity="1"><g transform="translate(0.680487, 87.32274)"><g><path d="M 37.984375 1.125 C 31.171875 1.125 25.242188 -0.265625 20.203125 -3.046875 C 15.171875 -5.828125 11.3125 -9.578125 8.625 -14.296875 C 5.9375 -19.023438 4.59375 -24.203125 4.59375 -29.828125 C 4.59375 -35.890625 6.109375 -41.171875 9.140625 -45.671875 C 12.171875 -50.179688 16.328125 -53.640625 21.609375 -56.046875 C 26.898438 -58.453125 32.828125 -59.65625 39.390625 -59.65625 C 42.828125 -59.65625 45.984375 -59.3125 48.859375 -58.625 C 51.742188 -57.9375 54.1875 -56.96875 56.1875 -55.71875 C 56.625 -55.40625 56.875 -55.171875 56.9375 -55.015625 C 57 -54.859375 57.0625 -54.40625 57.125 -53.65625 L 58.25 -43.140625 C 58.25 -42.953125 58.078125 -42.828125 57.734375 -42.765625 C 57.390625 -42.703125 57.1875 -42.765625 57.125 -42.953125 C 55.75 -48.148438 53.570312 -52 50.59375 -54.5 C 47.625 -57 43.453125 -58.25 38.078125 -58.25 C 32.890625 -58.25 28.234375 -57.140625 24.109375 -54.921875 C 19.984375 -52.703125 16.726562 -49.539062 14.34375 -45.4375 C 11.96875 -41.34375 10.78125 -36.546875 10.78125 -31.046875 C 10.78125 -25.859375 11.859375 -20.914062 14.015625 -16.21875 C 16.179688 -11.53125 19.5 -7.6875 23.96875 -4.6875 C 28.4375 -1.6875 33.953125 -0.1875 40.515625 -0.1875 C 45.148438 -0.1875 48.421875 -1.078125 50.328125 -2.859375 C 52.234375 -4.640625 53.1875 -7.59375 53.1875 -11.71875 C 53.1875 -14.976562 52.96875 -17.25 52.53125 -18.53125 C 52.09375 -19.8125 51.15625 -20.671875 49.71875 -21.109375 C 48.28125 -21.546875 45.773438 -21.765625 42.203125 -21.765625 C 41.828125 -21.765625 41.640625 -22.015625 41.640625 -22.515625 C 41.640625 -22.703125 41.6875 -22.875 41.78125 -23.03125 C 41.875 -23.1875 41.984375 -23.265625 42.109375 -23.265625 C 46.929688 -22.953125 50.8125 -22.796875 53.75 -22.796875 C 56.5625 -22.796875 59.5625 -22.890625 62.75 -23.078125 C 62.875 -23.078125 62.984375 -23 63.078125 -22.84375 C 63.171875 -22.6875 63.21875 -22.546875 63.21875 -22.421875 C 63.21875 -21.984375 63.0625 -21.765625 62.75 -21.765625 C 61.125 -21.828125 59.96875 -21.625 59.28125 -21.15625 C 58.59375 -20.6875 58.15625 -19.734375 57.96875 -18.296875 C 57.78125 -16.859375 57.6875 -14.351562 57.6875 -10.78125 C 57.6875 -7.96875 57.796875 -5.96875 58.015625 -4.78125 C 58.234375 -3.59375 58.34375 -2.84375 58.34375 -2.53125 C 58.34375 -2.15625 58.28125 -1.90625 58.15625 -1.78125 C 58.03125 -1.65625 57.75 -1.53125 57.3125 -1.40625 C 49.738281 0.28125 43.296875 1.125 37.984375 1.125 Z M 37.984375 1.125 "/></g></g></g></g></g></g><g transform="matrix(1, 0, 0, 1, 108, 50)"><g clip-path="url(#11cc2911da)"><g fill="#ffffff" fill-opacity="1"><g transform="translate(0.32626, 107.876454)"><g><path d="M 78.3125 -1.390625 C 78.539062 -1.390625 78.65625 -1.15625 78.65625 -0.6875 C 78.65625 -0.226562 78.539062 0 78.3125 0 L 64.875 0 C 62.9375 0 59.207031 -3.222656 53.6875 -9.671875 C 48.164062 -16.117188 41.582031 -24.984375 33.9375 -36.265625 C 31.238281 -35.722656 28.804688 -35.453125 26.640625 -35.453125 C 26.335938 -35.453125 24.675781 -35.566406 21.65625 -35.796875 L 21.65625 -9.390625 C 21.65625 -6.992188 21.90625 -5.253906 22.40625 -4.171875 C 22.914062 -3.085938 23.863281 -2.351562 25.25 -1.96875 C 26.644531 -1.582031 28.882812 -1.390625 31.96875 -1.390625 C 32.207031 -1.390625 32.328125 -1.15625 32.328125 -0.6875 C 32.328125 -0.226562 32.207031 0 31.96875 0 C 29.65625 0 27.800781 -0.0351562 26.40625 -0.109375 L 18.53125 -0.234375 L 10.890625 -0.109375 C 9.492188 -0.0351562 7.5625 0 5.09375 0 C 4.9375 0 4.859375 -0.226562 4.859375 -0.6875 C 4.859375 -1.15625 4.9375 -1.390625 5.09375 -1.390625 C 8.1875 -1.390625 10.445312 -1.582031 11.875 -1.96875 C 13.300781 -2.351562 14.285156 -3.101562 14.828125 -4.21875 C 15.367188 -5.34375 15.640625 -7.066406 15.640625 -9.390625 L 15.640625 -63.015625 C 15.640625 -65.335938 15.390625 -67.035156 14.890625 -68.109375 C 14.390625 -69.191406 13.421875 -69.945312 11.984375 -70.375 C 10.554688 -70.800781 8.335938 -71.015625 5.328125 -71.015625 C 5.097656 -71.015625 4.984375 -71.242188 4.984375 -71.703125 C 4.984375 -72.171875 5.097656 -72.40625 5.328125 -72.40625 L 10.890625 -72.28125 C 13.972656 -72.132812 16.519531 -72.0625 18.53125 -72.0625 C 20.226562 -72.0625 21.828125 -72.097656 23.328125 -72.171875 C 24.835938 -72.242188 26.132812 -72.320312 27.21875 -72.40625 C 30 -72.632812 32.472656 -72.75 34.640625 -72.75 C 40.429688 -72.75 44.925781 -71.335938 48.125 -68.515625 C 51.332031 -65.703125 52.9375 -61.976562 52.9375 -57.34375 C 52.9375 -53.25 51.703125 -49.519531 49.234375 -46.15625 C 46.765625 -42.800781 43.484375 -40.160156 39.390625 -38.234375 C 46.023438 -28.804688 51.582031 -21.46875 56.0625 -16.21875 C 60.539062 -10.96875 64.519531 -7.179688 68 -4.859375 C 71.476562 -2.546875 74.914062 -1.390625 78.3125 -1.390625 Z M 21.65625 -38.453125 C 23.820312 -38.222656 26.140625 -38.109375 28.609375 -38.109375 C 35.023438 -38.109375 39.601562 -39.441406 42.34375 -42.109375 C 45.082031 -44.773438 46.453125 -48.8125 46.453125 -54.21875 C 46.453125 -60.164062 45.003906 -64.488281 42.109375 -67.1875 C 39.210938 -69.894531 35.023438 -71.25 29.546875 -71.25 C 26.609375 -71.25 24.554688 -70.707031 23.390625 -69.625 C 22.234375 -68.539062 21.65625 -66.257812 21.65625 -62.78125 Z M 21.65625 -38.453125 "/></g></g></g></g></g><path stroke-linecap="butt" transform="matrix(0.608552, -0.866484, 0.866484, 0.608552, 104.148563, 128.317429)" fill="none" stroke-linejoin="miter" d="M 0.000468225 1.000338 L 97.309888 1.001414 " stroke="#1e2e4d" stroke-width="18" /><path stroke-linecap="butt" transform="matrix(0.608552, -0.866484, 0.866484, 0.608552, 104.148563, 128.317429)" fill="none" stroke-linejoin="miter" d="M 0.000468225 1.000338 L 97.309888 1.001414 " stroke="#ffffff" stroke-width="2" stroke-opacity="1" stroke-miterlimit="4"/><g clip-path="url(#5c90f89828)"><g transform="matrix(1, 0, 0, 1, 24, 229)"><g clip-path="url(#afb571fe61)"><g fill="#7a8a9e" fill-opacity="1"><g transform="translate(1.310208, 11.68941)"><g><path d="M 2.484375 0 L 0.296875 0 L 2.546875 -10.65625 L 7.21875 -10.65625 C 8.46875 -10.65625 9.363281 -10.457031 9.90625 -10.0625 C 10.457031 -9.664062 10.734375 -9.117188 10.734375 -8.421875 C 10.734375 -6.929688 10.03125 -5.835938 8.625 -5.140625 C 9.15625 -4.878906 9.421875 -4.460938 9.421875 -3.890625 C 9.421875 -3.628906 9.40625 -3.390625 9.375 -3.171875 L 9.03125 -1.25 C 9 -1.09375 8.984375 -0.953125 8.984375 -0.828125 C 8.984375 -0.523438 9.085938 -0.34375 9.296875 -0.28125 L 9.234375 0 L 6.75 0 C 6.726562 -0.132812 6.71875 -0.269531 6.71875 -0.40625 C 6.71875 -0.757812 6.800781 -1.351562 6.96875 -2.1875 C 7.070312 -2.769531 7.125 -3.128906 7.125 -3.265625 C 7.125 -3.523438 7.023438 -3.738281 6.828125 -3.90625 C 6.640625 -4.082031 6.328125 -4.171875 5.890625 -4.171875 L 3.359375 -4.171875 Z M 3.734375 -5.96875 L 6.125 -5.96875 C 6.957031 -5.96875 7.546875 -6.132812 7.890625 -6.46875 C 8.242188 -6.8125 8.421875 -7.257812 8.421875 -7.8125 C 8.421875 -8.132812 8.304688 -8.382812 8.078125 -8.5625 C 7.859375 -8.738281 7.507812 -8.828125 7.03125 -8.828125 L 4.34375 -8.828125 Z M 3.734375 -5.96875 "/></g></g></g><g fill="#7a8a9e" fill-opacity="1"><g transform="translate(16.299923, 11.68941)"><g><path d="M 7.6875 -2.3125 C 6.90625 -0.632812 5.519531 0.203125 3.53125 0.203125 C 2.601562 0.203125 1.847656 -0.0546875 1.265625 -0.578125 C 0.679688 -1.109375 0.390625 -1.847656 0.390625 -2.796875 C 0.390625 -4.210938 0.84375 -5.453125 1.75 -6.515625 C 2.65625 -7.578125 3.804688 -8.109375 5.203125 -8.109375 C 6.148438 -8.109375 6.894531 -7.828125 7.4375 -7.265625 C 7.976562 -6.703125 8.25 -5.972656 8.25 -5.078125 C 8.25 -4.554688 8.164062 -3.992188 8 -3.390625 L 2.5 -3.390625 C 2.488281 -3.210938 2.484375 -3.078125 2.484375 -2.984375 C 2.484375 -1.960938 2.945312 -1.453125 3.875 -1.453125 C 4.65625 -1.453125 5.210938 -1.738281 5.546875 -2.3125 Z M 6.125 -4.734375 C 6.15625 -4.910156 6.171875 -5.054688 6.171875 -5.171875 C 6.171875 -5.578125 6.0625 -5.878906 5.84375 -6.078125 C 5.625 -6.285156 5.3125 -6.390625 4.90625 -6.390625 C 3.96875 -6.390625 3.269531 -5.835938 2.8125 -4.734375 Z M 6.125 -4.734375 "/></g></g></g><g fill="#7a8a9e" fill-opacity="1"><g transform="translate(29.254767, 11.68941)"><g><path d="M 1.0625 -5.34375 C 1.550781 -7.1875 2.898438 -8.109375 5.109375 -8.109375 C 5.984375 -8.109375 6.691406 -7.953125 7.234375 -7.640625 C 7.785156 -7.328125 8.0625 -6.894531 8.0625 -6.34375 C 8.0625 -6.21875 8.046875 -6.070312 8.015625 -5.90625 L 7.0625 -1.375 C 7.03125 -1.21875 7.015625 -1.03125 7.015625 -0.8125 C 7.015625 -0.53125 7.109375 -0.363281 7.296875 -0.3125 L 7.234375 0 L 5.015625 0 C 4.972656 -0.25 4.96875 -0.5625 5 -0.9375 C 4.238281 -0.175781 3.296875 0.203125 2.171875 0.203125 C 1.503906 0.203125 0.984375 0.0351562 0.609375 -0.296875 C 0.234375 -0.628906 0.046875 -1.101562 0.046875 -1.71875 C 0.046875 -2.476562 0.304688 -3.113281 0.828125 -3.625 C 1.347656 -4.132812 2.015625 -4.445312 2.828125 -4.5625 L 5.046875 -4.859375 C 5.640625 -4.929688 5.9375 -5.21875 5.9375 -5.71875 C 5.9375 -5.96875 5.832031 -6.15625 5.625 -6.28125 C 5.414062 -6.40625 5.144531 -6.46875 4.8125 -6.46875 C 3.875 -6.46875 3.296875 -6.09375 3.078125 -5.34375 Z M 5.5625 -3.828125 C 5.257812 -3.628906 4.609375 -3.46875 3.609375 -3.34375 C 2.671875 -3.21875 2.203125 -2.785156 2.203125 -2.046875 C 2.203125 -1.796875 2.28125 -1.601562 2.4375 -1.46875 C 2.59375 -1.34375 2.816406 -1.28125 3.109375 -1.28125 C 3.597656 -1.28125 4.066406 -1.425781 4.515625 -1.71875 C 4.972656 -2.007812 5.242188 -2.347656 5.328125 -2.734375 Z M 5.5625 -3.828125 "/></g></g></g><g fill="#7a8a9e" fill-opacity="1"><g transform="translate(42.180645, 11.68941)"><g><path d="M 2.296875 0 L 0.21875 0 L 2.484375 -10.65625 L 4.5625 -10.65625 Z M 2.296875 0 "/></g></g></g><g fill="#7a8a9e" fill-opacity="1"><g transform="translate(50.739899, 11.68941)"><g/></g></g><g fill="#7a8a9e" fill-opacity="1"><g transform="translate(59.17604, 11.68941)"><g><path d="M 9.984375 -8.765625 L 4.328125 -8.765625 L 3.859375 -6.53125 L 9.0625 -6.53125 L 8.65625 -4.640625 L 3.453125 -4.640625 L 2.875 -1.890625 L 8.78125 -1.890625 L 8.375 0 L 0.296875 0 L 2.546875 -10.65625 L 10.390625 -10.65625 Z M 9.984375 -8.765625 "/></g></g></g><g fill="#7a8a9e" fill-opacity="1"><g transform="translate(73.448838, 11.68941)"><g><path d="M 5.8125 -5.46875 C 5.820312 -5.539062 5.828125 -5.625 5.828125 -5.71875 C 5.828125 -5.976562 5.726562 -6.179688 5.53125 -6.328125 C 5.332031 -6.472656 5.046875 -6.546875 4.671875 -6.546875 C 4.273438 -6.546875 3.9375 -6.460938 3.65625 -6.296875 C 3.382812 -6.128906 3.25 -5.910156 3.25 -5.640625 C 3.25 -5.492188 3.289062 -5.375 3.375 -5.28125 C 3.46875 -5.195312 3.648438 -5.117188 3.921875 -5.046875 L 5.609375 -4.609375 C 6.273438 -4.429688 6.742188 -4.179688 7.015625 -3.859375 C 7.296875 -3.546875 7.4375 -3.140625 7.4375 -2.640625 C 7.4375 -1.734375 7.035156 -1.019531 6.234375 -0.5 C 5.441406 0.0078125 4.492188 0.265625 3.390625 0.265625 C 2.460938 0.265625 1.691406 0.0859375 1.078125 -0.265625 C 0.472656 -0.617188 0.171875 -1.132812 0.171875 -1.8125 C 0.171875 -2.03125 0.195312 -2.253906 0.25 -2.484375 L 2.34375 -2.484375 C 2.320312 -2.367188 2.3125 -2.273438 2.3125 -2.203125 C 2.3125 -1.890625 2.425781 -1.65625 2.65625 -1.5 C 2.894531 -1.34375 3.222656 -1.265625 3.640625 -1.265625 C 4.148438 -1.265625 4.539062 -1.347656 4.8125 -1.515625 C 5.082031 -1.679688 5.21875 -1.910156 5.21875 -2.203125 C 5.21875 -2.367188 5.164062 -2.503906 5.0625 -2.609375 C 4.957031 -2.722656 4.738281 -2.820312 4.40625 -2.90625 L 2.515625 -3.40625 C 2.066406 -3.53125 1.710938 -3.742188 1.453125 -4.046875 C 1.191406 -4.359375 1.0625 -4.753906 1.0625 -5.234375 C 1.0625 -6.097656 1.441406 -6.789062 2.203125 -7.3125 C 2.972656 -7.84375 3.910156 -8.109375 5.015625 -8.109375 C 5.835938 -8.109375 6.523438 -7.914062 7.078125 -7.53125 C 7.640625 -7.15625 7.921875 -6.648438 7.921875 -6.015625 C 7.921875 -5.828125 7.890625 -5.644531 7.828125 -5.46875 Z M 5.8125 -5.46875 "/></g></g></g><g fill="#7a8a9e" fill-opacity="1"><g transform="translate(86.142988, 11.68941)"><g><path d="M 4.21875 -7.90625 L 5.515625 -7.90625 L 5.1875 -6.421875 L 3.90625 -6.421875 L 2.953125 -1.984375 C 2.941406 -1.921875 2.9375 -1.867188 2.9375 -1.828125 C 2.9375 -1.703125 2.976562 -1.613281 3.0625 -1.5625 C 3.15625 -1.507812 3.3125 -1.484375 3.53125 -1.484375 C 3.757812 -1.484375 3.960938 -1.492188 4.140625 -1.515625 L 3.8125 0.03125 C 3.476562 0.0703125 3.085938 0.09375 2.640625 0.09375 C 1.992188 0.09375 1.515625 0 1.203125 -0.1875 C 0.890625 -0.382812 0.734375 -0.675781 0.734375 -1.0625 C 0.734375 -1.226562 0.753906 -1.410156 0.796875 -1.609375 L 1.8125 -6.421875 L 0.75 -6.421875 L 1.0625 -7.90625 L 2.140625 -7.90625 L 2.59375 -10.03125 L 4.671875 -10.03125 Z M 4.21875 -7.90625 "/></g></g></g><g fill="#7a8a9e" fill-opacity="1"><g transform="translate(95.578457, 11.68941)"><g><path d="M 1.0625 -5.34375 C 1.550781 -7.1875 2.898438 -8.109375 5.109375 -8.109375 C 5.984375 -8.109375 6.691406 -7.953125 7.234375 -7.640625 C 7.785156 -7.328125 8.0625 -6.894531 8.0625 -6.34375 C 8.0625 -6.21875 8.046875 -6.070312 8.015625 -5.90625 L 7.0625 -1.375 C 7.03125 -1.21875 7.015625 -1.03125 7.015625 -0.8125 C 7.015625 -0.53125 7.109375 -0.363281 7.296875 -0.3125 L 7.234375 0 L 5.015625 0 C 4.972656 -0.25 4.96875 -0.5625 5 -0.9375 C 4.238281 -0.175781 3.296875 0.203125 2.171875 0.203125 C 1.503906 0.203125 0.984375 0.0351562 0.609375 -0.296875 C 0.234375 -0.628906 0.046875 -1.101562 0.046875 -1.71875 C 0.046875 -2.476562 0.304688 -3.113281 0.828125 -3.625 C 1.347656 -4.132812 2.015625 -4.445312 2.828125 -4.5625 L 5.046875 -4.859375 C 5.640625 -4.929688 5.9375 -5.21875 5.9375 -5.71875 C 5.9375 -5.96875 5.832031 -6.15625 5.625 -6.28125 C 5.414062 -6.40625 5.144531 -6.46875 4.8125 -6.46875 C 3.875 -6.46875 3.296875 -6.09375 3.078125 -5.34375 Z M 5.5625 -3.828125 C 5.257812 -3.628906 4.609375 -3.46875 3.609375 -3.34375 C 2.671875 -3.21875 2.203125 -2.785156 2.203125 -2.046875 C 2.203125 -1.796875 2.28125 -1.601562 2.4375 -1.46875 C 2.59375 -1.34375 2.816406 -1.28125 3.109375 -1.28125 C 3.597656 -1.28125 4.066406 -1.425781 4.515625 -1.71875 C 4.972656 -2.007812 5.242188 -2.347656 5.328125 -2.734375 Z M 5.5625 -3.828125 "/></g></g></g><g fill="#7a8a9e" fill-opacity="1"><g transform="translate(108.504335, 11.68941)"><g><path d="M 4.21875 -7.90625 L 5.515625 -7.90625 L 5.1875 -6.421875 L 3.90625 -6.421875 L 2.953125 -1.984375 C 2.941406 -1.921875 2.9375 -1.867188 2.9375 -1.828125 C 2.9375 -1.703125 2.976562 -1.613281 3.0625 -1.5625 C 3.15625 -1.507812 3.3125 -1.484375 3.53125 -1.484375 C 3.757812 -1.484375 3.960938 -1.492188 4.140625 -1.515625 L 3.8125 0.03125 C 3.476562 0.0703125 3.085938 0.09375 2.640625 0.09375 C 1.992188 0.09375 1.515625 0 1.203125 -0.1875 C 0.890625 -0.382812 0.734375 -0.675781 0.734375 -1.0625 C 0.734375 -1.226562 0.753906 -1.410156 0.796875 -1.609375 L 1.8125 -6.421875 L 0.75 -6.421875 L 1.0625 -7.90625 L 2.140625 -7.90625 L 2.59375 -10.03125 L 4.671875 -10.03125 Z M 4.21875 -7.90625 "/></g></g></g><g fill="#7a8a9e" fill-opacity="1"><g transform="translate(117.939805, 11.68941)"><g><path d="M 7.6875 -2.3125 C 6.90625 -0.632812 5.519531 0.203125 3.53125 0.203125 C 2.601562 0.203125 1.847656 -0.0546875 1.265625 -0.578125 C 0.679688 -1.109375 0.390625 -1.847656 0.390625 -2.796875 C 0.390625 -4.210938 0.84375 -5.453125 1.75 -6.515625 C 2.65625 -7.578125 3.804688 -8.109375 5.203125 -8.109375 C 6.148438 -8.109375 6.894531 -7.828125 7.4375 -7.265625 C 7.976562 -6.703125 8.25 -5.972656 8.25 -5.078125 C 8.25 -4.554688 8.164062 -3.992188 8 -3.390625 L 2.5 -3.390625 C 2.488281 -3.210938 2.484375 -3.078125 2.484375 -2.984375 C 2.484375 -1.960938 2.945312 -1.453125 3.875 -1.453125 C 4.65625 -1.453125 5.210938 -1.738281 5.546875 -2.3125 Z M 6.125 -4.734375 C 6.15625 -4.910156 6.171875 -5.054688 6.171875 -5.171875 C 6.171875 -5.578125 6.0625 -5.878906 5.84375 -6.078125 C 5.625 -6.285156 5.3125 -6.390625 4.90625 -6.390625 C 3.96875 -6.390625 3.269531 -5.835938 2.8125 -4.734375 Z M 6.125 -4.734375 "/></g></g></g><g fill="#7a8a9e" fill-opacity="1"><g transform="translate(130.894648, 11.68941)"><g/></g></g><g fill="#7a8a9e" fill-opacity="1"><g transform="translate(139.33079, 11.68941)"><g><path d="M 2.546875 -10.65625 L 7.5 -10.65625 C 8.507812 -10.65625 9.257812 -10.453125 9.75 -10.046875 C 10.25 -9.640625 10.5 -9.132812 10.5 -8.53125 C 10.5 -7.269531 9.804688 -6.332031 8.421875 -5.71875 C 9.367188 -5.394531 9.84375 -4.75 9.84375 -3.78125 C 9.84375 -2.863281 9.457031 -2.003906 8.6875 -1.203125 C 7.925781 -0.398438 6.773438 0 5.234375 0 L 0.296875 0 Z M 2.8125 -1.84375 L 5.65625 -1.84375 C 6.34375 -1.84375 6.84375 -2.019531 7.15625 -2.375 C 7.46875 -2.726562 7.625 -3.132812 7.625 -3.59375 C 7.625 -3.976562 7.5 -4.253906 7.25 -4.421875 C 7.007812 -4.597656 6.609375 -4.6875 6.046875 -4.6875 L 3.421875 -4.6875 Z M 3.8125 -6.484375 L 6.484375 -6.484375 C 7.128906 -6.484375 7.585938 -6.632812 7.859375 -6.9375 C 8.140625 -7.238281 8.28125 -7.570312 8.28125 -7.9375 C 8.28125 -8.207031 8.179688 -8.421875 7.984375 -8.578125 C 7.785156 -8.742188 7.363281 -8.828125 6.71875 -8.828125 L 4.3125 -8.828125 Z M 3.8125 -6.484375 "/></g></g></g><g fill="#7a8a9e" fill-opacity="1"><g transform="translate(154.240841, 11.68941)"><g><path d="M 7.296875 0 L 5.3125 0 L 5.546875 -1.109375 L 5.515625 -1.109375 C 4.847656 -0.234375 3.988281 0.203125 2.9375 0.203125 C 2.25 0.203125 1.695312 0.0234375 1.28125 -0.328125 C 0.863281 -0.691406 0.65625 -1.1875 0.65625 -1.8125 C 0.65625 -2.09375 0.6875 -2.390625 0.75 -2.703125 L 1.859375 -7.90625 L 3.9375 -7.90625 L 2.90625 -3 C 2.851562 -2.789062 2.828125 -2.625 2.828125 -2.5 C 2.828125 -1.863281 3.191406 -1.546875 3.921875 -1.546875 C 4.421875 -1.546875 4.847656 -1.707031 5.203125 -2.03125 C 5.554688 -2.351562 5.796875 -2.789062 5.921875 -3.34375 L 6.890625 -7.90625 L 8.96875 -7.90625 Z M 7.296875 0 "/></g></g></g><g fill="#7a8a9e" fill-opacity="1"><g transform="translate(167.789489, 11.68941)"><g><path d="M 5.8125 -5.46875 C 5.820312 -5.539062 5.828125 -5.625 5.828125 -5.71875 C 5.828125 -5.976562 5.726562 -6.179688 5.53125 -6.328125 C 5.332031 -6.472656 5.046875 -6.546875 4.671875 -6.546875 C 4.273438 -6.546875 3.9375 -6.460938 3.65625 -6.296875 C 3.382812 -6.128906 3.25 -5.910156 3.25 -5.640625 C 3.25 -5.492188 3.289062 -5.375 3.375 -5.28125 C 3.46875 -5.195312 3.648438 -5.117188 3.921875 -5.046875 L 5.609375 -4.609375 C 6.273438 -4.429688 6.742188 -4.179688 7.015625 -3.859375 C 7.296875 -3.546875 7.4375 -3.140625 7.4375 -2.640625 C 7.4375 -1.734375 7.035156 -1.019531 6.234375 -0.5 C 5.441406 0.0078125 4.492188 0.265625 3.390625 0.265625 C 2.460938 0.265625 1.691406 0.0859375 1.078125 -0.265625 C 0.472656 -0.617188 0.171875 -1.132812 0.171875 -1.8125 C 0.171875 -2.03125 0.195312 -2.253906 0.25 -2.484375 L 2.34375 -2.484375 C 2.320312 -2.367188 2.3125 -2.273438 2.3125 -2.203125 C 2.3125 -1.890625 2.425781 -1.65625 2.65625 -1.5 C 2.894531 -1.34375 3.222656 -1.265625 3.640625 -1.265625 C 4.148438 -1.265625 4.539062 -1.347656 4.8125 -1.515625 C 5.082031 -1.679688 5.21875 -1.910156 5.21875 -2.203125 C 5.21875 -2.367188 5.164062 -2.503906 5.0625 -2.609375 C 4.957031 -2.722656 4.738281 -2.820312 4.40625 -2.90625 L 2.515625 -3.40625 C 2.066406 -3.53125 1.710938 -3.742188 1.453125 -4.046875 C 1.191406 -4.359375 1.0625 -4.753906 1.0625 -5.234375 C 1.0625 -6.097656 1.441406 -6.789062 2.203125 -7.3125 C 2.972656 -7.84375 3.910156 -8.109375 5.015625 -8.109375 C 5.835938 -8.109375 6.523438 -7.914062 7.078125 -7.53125 C 7.640625 -7.15625 7.921875 -6.648438 7.921875 -6.015625 C 7.921875 -5.828125 7.890625 -5.644531 7.828125 -5.46875 Z M 5.8125 -5.46875 "/></g></g></g><g clip-path="url(#f824c5c3fb)"><g fill="#7a8a9e" fill-opacity="1"><g transform="translate(180.483638, 11.68941)"><g><path d="M 4.171875 -8.828125 L 2.09375 -8.828125 L 2.5 -10.765625 L 4.59375 -10.765625 Z M 3.984375 -7.90625 L 2.296875 0 L 0.21875 0 L 1.90625 -7.90625 Z M 3.984375 -7.90625 "/></g></g></g></g><g fill="#7a8a9e" fill-opacity="1"><g transform="translate(189.042892, 11.68941)"><g><path d="M 7.359375 0 L 5.28125 0 L 6.3125 -4.90625 C 6.351562 -5.09375 6.375 -5.265625 6.375 -5.421875 C 6.375 -5.734375 6.289062 -5.96875 6.125 -6.125 C 5.96875 -6.28125 5.722656 -6.359375 5.390625 -6.359375 C 4.867188 -6.359375 4.40625 -6.171875 4 -5.796875 C 3.601562 -5.429688 3.335938 -4.910156 3.203125 -4.234375 L 2.296875 0 L 0.21875 0 L 1.90625 -7.90625 L 3.890625 -7.90625 L 3.640625 -6.734375 L 3.671875 -6.734375 C 4.472656 -7.648438 5.375 -8.109375 6.375 -8.109375 C 7.0625 -8.109375 7.601562 -7.925781 8 -7.5625 C 8.394531 -7.207031 8.59375 -6.722656 8.59375 -6.109375 C 8.59375 -5.910156 8.554688 -5.632812 8.484375 -5.28125 Z M 7.359375 0 "/></g></g></g><g fill="#7a8a9e" fill-opacity="1"><g transform="translate(202.548091, 11.68941)"><g><path d="M 7.6875 -2.3125 C 6.90625 -0.632812 5.519531 0.203125 3.53125 0.203125 C 2.601562 0.203125 1.847656 -0.0546875 1.265625 -0.578125 C 0.679688 -1.109375 0.390625 -1.847656 0.390625 -2.796875 C 0.390625 -4.210938 0.84375 -5.453125 1.75 -6.515625 C 2.65625 -7.578125 3.804688 -8.109375 5.203125 -8.109375 C 6.148438 -8.109375 6.894531 -7.828125 7.4375 -7.265625 C 7.976562 -6.703125 8.25 -5.972656 8.25 -5.078125 C 8.25 -4.554688 8.164062 -3.992188 8 -3.390625 L 2.5 -3.390625 C 2.488281 -3.210938 2.484375 -3.078125 2.484375 -2.984375 C 2.484375 -1.960938 2.945312 -1.453125 3.875 -1.453125 C 4.65625 -1.453125 5.210938 -1.738281 5.546875 -2.3125 Z M 6.125 -4.734375 C 6.15625 -4.910156 6.171875 -5.054688 6.171875 -5.171875 C 6.171875 -5.578125 6.0625 -5.878906 5.84375 -6.078125 C 5.625 -6.285156 5.3125 -6.390625 4.90625 -6.390625 C 3.96875 -6.390625 3.269531 -5.835938 2.8125 -4.734375 Z M 6.125 -4.734375 "/></g></g></g><g fill="#7a8a9e" fill-opacity="1"><g transform="translate(215.502934, 11.68941)"><g><path d="M 5.8125 -5.46875 C 5.820312 -5.539062 5.828125 -5.625 5.828125 -5.71875 C 5.828125 -5.976562 5.726562 -6.179688 5.53125 -6.328125 C 5.332031 -6.472656 5.046875 -6.546875 4.671875 -6.546875 C 4.273438 -6.546875 3.9375 -6.460938 3.65625 -6.296875 C 3.382812 -6.128906 3.25 -5.910156 3.25 -5.640625 C 3.25 -5.492188 3.289062 -5.375 3.375 -5.28125 C 3.46875 -5.195312 3.648438 -5.117188 3.921875 -5.046875 L 5.609375 -4.609375 C 6.273438 -4.429688 6.742188 -4.179688 7.015625 -3.859375 C 7.296875 -3.546875 7.4375 -3.140625 7.4375 -2.640625 C 7.4375 -1.734375 7.035156 -1.019531 6.234375 -0.5 C 5.441406 0.0078125 4.492188 0.265625 3.390625 0.265625 C 2.460938 0.265625 1.691406 0.0859375 1.078125 -0.265625 C 0.472656 -0.617188 0.171875 -1.132812 0.171875 -1.8125 C 0.171875 -2.03125 0.195312 -2.253906 0.25 -2.484375 L 2.34375 -2.484375 C 2.320312 -2.367188 2.3125 -2.273438 2.3125 -2.203125 C 2.3125 -1.890625 2.425781 -1.65625 2.65625 -1.5 C 2.894531 -1.34375 3.222656 -1.265625 3.640625 -1.265625 C 4.148438 -1.265625 4.539062 -1.347656 4.8125 -1.515625 C 5.082031 -1.679688 5.21875 -1.910156 5.21875 -2.203125 C 5.21875 -2.367188 5.164062 -2.503906 5.0625 -2.609375 C 4.957031 -2.722656 4.738281 -2.820312 4.40625 -2.90625 L 2.515625 -3.40625 C 2.066406 -3.53125 1.710938 -3.742188 1.453125 -4.046875 C 1.191406 -4.359375 1.0625 -4.753906 1.0625 -5.234375 C 1.0625 -6.097656 1.441406 -6.789062 2.203125 -7.3125 C 2.972656 -7.84375 3.910156 -8.109375 5.015625 -8.109375 C 5.835938 -8.109375 6.523438 -7.914062 7.078125 -7.53125 C 7.640625 -7.15625 7.921875 -6.648438 7.921875 -6.015625 C 7.921875 -5.828125 7.890625 -5.644531 7.828125 -5.46875 Z M 5.8125 -5.46875 "/></g></g></g><g fill="#7a8a9e" fill-opacity="1"><g transform="translate(228.197084, 11.68941)"><g><path d="M 5.8125 -5.46875 C 5.820312 -5.539062 5.828125 -5.625 5.828125 -5.71875 C 5.828125 -5.976562 5.726562 -6.179688 5.53125 -6.328125 C 5.332031 -6.472656 5.046875 -6.546875 4.671875 -6.546875 C 4.273438 -6.546875 3.9375 -6.460938 3.65625 -6.296875 C 3.382812 -6.128906 3.25 -5.910156 3.25 -5.640625 C 3.25 -5.492188 3.289062 -5.375 3.375 -5.28125 C 3.46875 -5.195312 3.648438 -5.117188 3.921875 -5.046875 L 5.609375 -4.609375 C 6.273438 -4.429688 6.742188 -4.179688 7.015625 -3.859375 C 7.296875 -3.546875 7.4375 -3.140625 7.4375 -2.640625 C 7.4375 -1.734375 7.035156 -1.019531 6.234375 -0.5 C 5.441406 0.0078125 4.492188 0.265625 3.390625 0.265625 C 2.460938 0.265625 1.691406 0.0859375 1.078125 -0.265625 C 0.472656 -0.617188 0.171875 -1.132812 0.171875 -1.8125 C 0.171875 -2.03125 0.195312 -2.253906 0.25 -2.484375 L 2.34375 -2.484375 C 2.320312 -2.367188 2.3125 -2.273438 2.3125 -2.203125 C 2.3125 -1.890625 2.425781 -1.65625 2.65625 -1.5 C 2.894531 -1.34375 3.222656 -1.265625 3.640625 -1.265625 C 4.148438 -1.265625 4.539062 -1.347656 4.8125 -1.515625 C 5.082031 -1.679688 5.21875 -1.910156 5.21875 -2.203125 C 5.21875 -2.367188 5.164062 -2.503906 5.0625 -2.609375 C 4.957031 -2.722656 4.738281 -2.820312 4.40625 -2.90625 L 2.515625 -3.40625 C 2.066406 -3.53125 1.710938 -3.742188 1.453125 -4.046875 C 1.191406 -4.359375 1.0625 -4.753906 1.0625 -5.234375 C 1.0625 -6.097656 1.441406 -6.789062 2.203125 -7.3125 C 2.972656 -7.84375 3.910156 -8.109375 5.015625 -8.109375 C 5.835938 -8.109375 6.523438 -7.914062 7.078125 -7.53125 C 7.640625 -7.15625 7.921875 -6.648438 7.921875 -6.015625 C 7.921875 -5.828125 7.890625 -5.644531 7.828125 -5.46875 Z M 5.8125 -5.46875 "/></g></g></g></g></g></g></g></g></svg>