<svg xmlns="http://www.w3.org/2000/svg" xmlns:xlink="http://www.w3.org/1999/xlink" zoomAndPan="magnify" viewBox="228 198 124 148" preserveAspectRatio="xMidYMid meet" version="1.0"><defs><g/><clipPath id="3dbc3d4682"><path d="M 0.71875 188 L 285.601562 188 L 285.601562 216 L 0.71875 216 Z M 0.71875 188 " clip-rule="nonzero"/></clipPath><clipPath id="778e5643a4"><rect x="0" width="286" y="0" height="28"/></clipPath><clipPath id="ee75e4068d"><path d="M 75 0.28125 L 143 0.28125 L 143 115 L 75 115 Z M 75 0.28125 " clip-rule="nonzero"/></clipPath><clipPath id="1678024c63"><rect x="0" width="68" y="0" height="115"/></clipPath><clipPath id="11cc2911da"><rect x="0" width="81" y="0" height="142"/></clipPath><clipPath id="51f95ea8b6"><path d="M 0.160156 0.558594 L 46.480469 0.558594 L 46.480469 62.480469 L 0.160156 62.480469 Z M 0.160156 0.558594 " clip-rule="nonzero"/></clipPath><clipPath id="6d7a374ed1"><path d="M 32.242188 0.675781 L 46.433594 9.242188 L 14.363281 62.382812 L 0.171875 53.816406 Z M 32.242188 0.675781 " clip-rule="nonzero"/></clipPath><clipPath id="5929062c77"><rect x="0" width="47" y="0" height="63"/></clipPath><clipPath id="9f2132226c"><path d="M 111 68 L 143 68 L 143 100 L 111 100 Z M 111 68 " clip-rule="nonzero"/></clipPath><clipPath id="868afd5484"><path d="M 123.546875 68.136719 L 142.882812 79.808594 L 130.992188 99.511719 L 111.65625 87.839844 Z M 123.546875 68.136719 " clip-rule="nonzero"/></clipPath><clipPath id="1130a9ae10"><path d="M 0.601562 0 L 32 0 L 32 31.640625 L 0.601562 31.640625 Z M 0.601562 0 " clip-rule="nonzero"/></clipPath><clipPath id="58366a7d04"><path d="M 12.546875 0.136719 L 31.882812 11.808594 L 19.992188 31.511719 L 0.65625 19.839844 Z M 12.546875 0.136719 " clip-rule="nonzero"/></clipPath><clipPath id="e85fa37a96"><rect x="0" width="32" y="0" height="32"/></clipPath><clipPath id="5c90f89828"><path d="M 24 229 L 267 229 L 267 245.320312 L 24 245.320312 Z M 24 229 " clip-rule="nonzero"/></clipPath><clipPath id="f824c5c3fb"><path d="M 180 0.480469 L 186 0.480469 L 186 12 L 180 12 Z M 180 0.480469 " clip-rule="nonzero"/></clipPath><clipPath id="afb571fe61"><rect x="0" width="243" y="0" height="17"/></clipPath><clipPath id="c4746059f3"><rect x="0" width="286" y="0" height="246"/></clipPath><mask id="stripeCut" maskUnits="userSpaceOnUse" x="-2000" y="-2000" width="6000" height="6000"><rect x="-2000" y="-2000" width="6000" height="6000" fill="#ffffff"/><path stroke-linecap="butt" transform="matrix(0.608552, -0.866484, 0.866484, 0.608552, 104.148563, 128.317429)" fill="none" stroke-linejoin="miter" d="M 0.000468225 1.000338 L 97.309888 1.001414 " stroke="#000000" stroke-width="18" stroke-opacity="1" stroke-miterlimit="4"/></mask></defs><g transform="matrix(1, 0, 0, 1, 156, 179)"><g clip-path="url(#c4746059f3)"><g mask="url(#stripeCut)"><g clip-path="url(#ee75e4068d)"><g transform="matrix(1, 0, 0, 1, 75, -0.000000000000028422)"><g clip-path="url(#1678024c63)"><g fill="#ffffff" fill-opacity="1"><g transform="translate(0.680487, 87.32274)"><g><path d="M 37.984375 1.125 C 31.171875 1.125 25.242188 -0.265625 20.203125 -3.046875 C 15.171875 -5.828125 11.3125 -9.578125 8.625 -14.296875 C 5.9375 -19.023438 4.59375 -24.203125 4.59375 -29.828125 C 4.59375 -35.890625 6.109375 -41.171875 9.140625 -45.671875 C 12.171875 -50.179688 16.328125 -53.640625 21.609375 -56.046875 C 26.898438 -58.453125 32.828125 -59.65625 39.390625 -59.65625 C 42.828125 -59.65625 45.984375 -59.3125 48.859375 -58.625 C 51.742188 -57.9375 54.1875 -56.96875 56.1875 -55.71875 C 56.625 -55.40625 56.875 -55.171875 56.9375 -55.015625 C 57 -54.859375 57.0625 -54.40625 57.125 -53.65625 L 58.25 -43.140625 C 58.25 -42.953125 58.078125 -42.828125 57.734375 -42.765625 C 57.390625 -42.703125 57.1875 -42.765625 57.125 -42.953125 C 55.75 -48.148438 53.570312 -52 50.59375 -54.5 C 47.625 -57 43.453125 -58.25 38.078125 -58.25 C 32.890625 -58.25 28.234375 -57.140625 24.109375 -54.921875 C 19.984375 -52.703125 16.726562 -49.539062 14.34375 -45.4375 C 11.96875 -41.34375 10.78125 -36.546875 10.78125 -31.046875 C 10.78125 -25.859375 11.859375 -20.914062 14.015625 -16.21875 C 16.179688 -11.53125 19.5 -7.6875 23.96875 -4.6875 C 28.4375 -1.6875 33.953125 -0.1875 40.515625 -0.1875 C 45.148438 -0.1875 48.421875 -1.078125 50.328125 -2.859375 C 52.234375 -4.640625 53.1875 -7.59375 53.1875 -11.71875 C 53.1875 -14.976562 52.96875 -17.25 52.53125 -18.53125 C 52.09375 -19.8125 51.15625 -20.671875 49.71875 -21.109375 C 48.28125 -21.546875 45.773438 -21.765625 42.203125 -21.765625 C 41.828125 -21.765625 41.640625 -22.015625 41.640625 -22.515625 C 41.640625 -22.703125 41.6875 -22.875 41.78125 -23.03125 C 41.875 -23.1875 41.984375 -23.265625 42.109375 -23.265625 C 46.929688 -22.953125 50.8125 -22.796875 53.75 -22.796875 C 56.5625 -22.796875 59.5625 -22.890625 62.75 -23.078125 C 62.875 -23.078125 62.984375 -23 63.078125 -22.84375 C 63.171875 -22.6875 63.21875 -22.546875 63.21875 -22.421875 C 63.21875 -21.984375 63.0625 -21.765625 62.75 -21.765625 C 61.125 -21.828125 59.96875 -21.625 59.28125 -21.15625 C 58.59375 -20.6875 58.15625 -19.734375 57.96875 -18.296875 C 57.78125 -16.859375 57.6875 -14.351562 57.6875 -10.78125 C 57.6875 -7.96875 57.796875 -5.96875 58.015625 -4.78125 C 58.234375 -3.59375 58.34375 -2.84375 58.34375 -2.53125 C 58.34375 -2.15625 58.28125 -1.90625 58.15625 -1.78125 C 58.03125 -1.65625 57.75 -1.53125 57.3125 -1.40625 C 49.738281 0.28125 43.296875 1.125 37.984375 1.125 Z M 37.984375 1.125 "/></g></g></g></g></g></g><g transform="matrix(1, 0, 0, 1, 108, 50)"><g clip-path="url(#11cc2911da)"><g fill="#ffffff" fill-opacity="1"><g transform="translate(0.32626, 107.876454)"><g><path d="M 78.3125 -1.390625 C 78.539062 -1.390625 78.65625 -1.15625 78.65625 -0.6875 C 78.65625 -0.226562 78.539062 0 78.3125 0 L 64.875 0 C 62.9375 0 59.207031 -3.222656 53.6875 -9.671875 C 48.164062 -16.117188 41.582031 -24.984375 33.9375 -36.265625 C 31.238281 -35.722656 28.804688 -35.453125 26.640625 -35.453125 C 26.335938 -35.453125 24.675781 -35.566406 21.65625 -35.796875 L 21.65625 -9.390625 C 21.65625 -6.992188 21.90625 -5.253906 22.40625 -4.171875 C 22.914062 -3.085938 23.863281 -2.351562 25.25 -1.96875 C 26.644531 -1.582031 28.882812 -1.390625 31.96875 -1.390625 C 32.207031 -1.390625 32.328125 -1.15625 32.328125 -0.6875 C 32.328125 -0.226562 32.207031 0 31.96875 0 C 29.65625 0 27.800781 -0.0351562 26.40625 -0.109375 L 18.53125 -0.234375 L 10.890625 -0.109375 C 9.492188 -0.0351562 7.5625 0 5.09375 0 C 4.9375 0 4.859375 -0.226562 4.859375 -0.6875 C 4.859375 -1.15625 4.9375 -1.390625 5.09375 -1.390625 C 8.1875 -1.390625 10.445312 -1.582031 11.875 -1.96875 C 13.300781 -2.351562 14.285156 -3.101562 14.828125 -4.21875 C 15.367188 -5.34375 15.640625 -7.066406 15.640625 -9.390625 L 15.640625 -63.015625 C 15.640625 -65.335938 15.390625 -67.035156 14.890625 -68.109375 C 14.390625 -69.191406 13.421875 -69.945312 11.984375 -70.375 C 10.554688 -70.800781 8.335938 -71.015625 5.328125 -71.015625 C 5.097656 -71.015625 4.984375 -71.242188 4.984375 -71.703125 C 4.984375 -72.171875 5.097656 -72.40625 5.328125 -72.40625 L 10.890625 -72.28125 C 13.972656 -72.132812 16.519531 -72.0625 18.53125 -72.0625 C 20.226562 -72.0625 21.828125 -72.097656 23.328125 -72.171875 C 24.835938 -72.242188 26.132812 -72.320312 27.21875 -72.40625 C 30 -72.632812 32.472656 -72.75 34.640625 -72.75 C 40.429688 -72.75 44.925781 -71.335938 48.125 -68.515625 C 51.332031 -65.703125 52.9375 -61.976562 52.9375 -57.34375 C 52.9375 -53.25 51.703125 -49.519531 49.234375 -46.15625 C 46.765625 -42.800781 43.484375 -40.160156 39.390625 -38.234375 C 46.023438 -28.804688 51.582031 -21.46875 56.0625 -16.21875 C 60.539062 -10.96875 64.519531 -7.179688 68 -4.859375 C 71.476562 -2.546875 74.914062 -1.390625 78.3125 -1.390625 Z M 21.65625 -38.453125 C 23.820312 -38.222656 26.140625 -38.109375 28.609375 -38.109375 C 35.023438 -38.109375 39.601562 -39.441406 42.34375 -42.109375 C 45.082031 -44.773438 46.453125 -48.8125 46.453125 -54.21875 C 46.453125 -60.164062 45.003906 -64.488281 42.109375 -67.1875 C 39.210938 -69.894531 35.023438 -71.25 29.546875 -71.25 C 26.609375 -71.25 24.554688 -70.707031 23.390625 -69.625 C 22.234375 -68.539062 21.65625 -66.257812 21.65625 -62.78125 Z M 21.65625 -38.453125 "/></g></g></g></g></g></g><path stroke-linecap="butt" transform="matrix(0.608552, -0.866484, 0.866484, 0.608552, 104.148563, 128.317429)" fill="none" stroke-linejoin="miter" d="M 0.000468225 1.000338 L 97.309888 1.001414 " stroke="#ffffff" stroke-width="2" stroke-opacity="1" stroke-miterlimit="4"/></g></g></svg>